<?xml version="1.0" encoding="UTF-8"?>
<svg width="200px" height="200px" viewBox="0 0 200 200" version="1.1" xmlns="http://www.w3.org/2000/svg" xmlns:xlink="http://www.w3.org/1999/xlink">
    <title>Placeholder</title>
    <g id="Placeholder" stroke="none" stroke-width="1" fill="none" fill-rule="evenodd">
        <rect fill="#F5F5F7" x="0" y="0" width="200" height="200"></rect>
        <g id="apple" transform="translate(75.000000, 75.000000)" fill="#A1A1A6" fill-rule="nonzero">
            <path d="M42.3666667,21.9466667 C42.2933333,16.8566667 46.3866667,14.28 46.58,14.1733333 C43.82,10.0666667 39.5666667,9.53333333 38.18,9.48 C34.58,9.11333333 31.1,11.6066667 29.2733333,11.6066667 C27.4066667,11.6066667 24.6066667,9.51333333 21.5666667,9.56666667 C17.6066667,9.62 13.9,11.76 11.8533333,15.2 C7.62,22.2 10.74,32.5333333 14.7866667,38.2 C16.8,40.9733333 19.1466667,44.04 22.1466667,43.94 C25.08,43.8266667 26.1733333,42.04 29.7066667,42.04 C33.2,42.04 34.22,43.94 37.2866667,43.88 C40.4333333,43.8266667 42.4466667,41.1066667 44.38,38.3066667 C46.6866667,35.1333333 47.6066667,32 47.6333333,31.8666667 C47.58,31.84 42.4466667,29.8933333 42.3666667,21.9466667 Z" id="Path"></path>
            <path d="M34.98,6.58666667 C36.6066667,4.6 37.7066667,1.88 37.38,0 C34.98,0.106666667 32.02,1.64 30.3333333,3.57333333 C28.82,5.29333333 27.4733333,8.13333333 27.84,9.93333333 C30.52,10.1333333 33.3066667,8.53333333 34.98,6.58666667 Z" id="Path"></path>
        </g>
    </g>
</svg>
